<svg id="Capa_1" enable-background="new 0 0 512 512" height="512" viewBox="0 0 512 512" width="512" xmlns="http://www.w3.org/2000/svg"><g><path d="m497 82.641h-482c-8.284 0-15 6.716-15 15v119.038c0 8.284 6.716 15 15 15h226v69.641h-19.687c-5.17-23.165-25.89-40.531-50.59-40.531-28.58 0-51.831 23.251-51.831 51.831 0 12.022 4.142 23.407 11.408 32.454-7.266 9.047-11.408 20.432-11.408 32.454 0 28.58 23.251 51.831 51.831 51.831 24.7 0 45.42-17.366 50.59-40.53h69.374c5.17 23.165 25.89 40.53 50.59 40.53 28.58 0 51.831-23.251 51.831-51.831 0-12.022-4.142-23.407-11.408-32.454 7.266-9.047 11.408-20.432 11.408-32.454 0-28.58-23.251-51.831-51.831-51.831-24.7 0-45.42 17.366-50.59 40.531h-19.687v-69.641h226c8.284 0 15-6.716 15-15v-119.038c0-8.284-6.716-15-15-15zm-192.369 248.679c4.237 0 8.276-1.792 11.12-4.932 2.843-3.141 4.226-7.337 3.807-11.553-.074-.742-.111-1.487-.111-2.214 0-12.038 9.793-21.831 21.831-21.831s21.831 9.793 21.831 21.831c0 8.049-4.412 15.423-11.515 19.244-4.861 2.615-7.893 7.689-7.893 13.209s3.032 10.594 7.893 13.209c7.103 3.821 11.515 11.195 11.515 19.245 0 12.038-9.793 21.831-21.831 21.831s-21.831-9.793-21.831-21.831c0-.727.038-1.472.111-2.214.419-4.216-.963-8.413-3.807-11.553-2.844-3.141-6.883-4.932-11.12-4.932h-97.263c-4.237 0-8.276 1.792-11.12 4.932-2.843 3.141-4.226 7.337-3.807 11.553.074.742.111 1.487.111 2.214 0 12.038-9.793 21.831-21.831 21.831s-21.831-9.793-21.831-21.831c0-8.049 4.412-15.423 11.515-19.245 4.861-2.615 7.893-7.689 7.893-13.209s-3.032-10.594-7.893-13.209c-7.103-3.821-11.515-11.195-11.515-19.244 0-12.038 9.793-21.831 21.831-21.831s21.831 9.793 21.831 21.831c0 .727-.038 1.472-.111 2.214-.419 4.216.963 8.413 3.807 11.553 2.844 3.141 6.883 4.932 11.12 4.932zm-274.631-218.679h211v89.038h-211zm452 89.038h-211v-89.038h211z"/><path d="m111.4 142.16c-7.846 0-15.363 6.899-15 15 .364 8.127 6.591 15 15 15 7.846 0 15.363-6.899 15-15-.364-8.127-6.591-15-15-15z"/><path d="m207.8 142.16c-7.846 0-15.363 6.899-15 15 .364 8.127 6.591 15 15 15 7.846 0 15.363-6.899 15-15-.364-8.127-6.591-15-15-15z"/><path d="m304.2 172.16c7.846 0 15.363-6.899 15-15-.364-8.127-6.591-15-15-15-7.846 0-15.363 6.899-15 15 .364 8.127 6.591 15 15 15z"/><path d="m400.6 172.16c7.846 0 15.363-6.899 15-15-.364-8.127-6.591-15-15-15-7.846 0-15.363 6.899-15 15 .364 8.127 6.591 15 15 15z"/></g></svg>